<?xml version="1.0" encoding="UTF-8" standalone="no"?>
<!DOCTYPE svg PUBLIC "-//W3C//DTD SVG 1.1//EN"
 "http://www.w3.org/Graphics/SVG/1.1/DTD/svg11.dtd">
<!-- Generated by graphviz version 14.0.0 (20250921.2048)
 -->
<!-- Title: G Pages: 1 -->
<svg width="360pt" height="146pt"
 viewBox="0.00 0.00 360.00 146.00" xmlns="http://www.w3.org/2000/svg" xmlns:xlink="http://www.w3.org/1999/xlink">
<g id="graph0" class="graph" transform="scale(0.559936 0.559936) rotate(0) translate(4 256)">
<title>G</title>
<!-- AccountCompromised -->
<g id="node1" class="node">
<title>AccountCompromised</title>
<g id="a_node1"><a xlink:title="(7) AccountCompromised">
<ellipse fill="#404040" stroke="#4a4a4a" cx="388.94" cy="-18" rx="95.37" ry="18"/>
<text xml:space="preserve" text-anchor="middle" x="388.94" y="-12.95" font-family="Times New Roman,serif" font-size="14.00" fill="white">AccountCompromised</text>
</a>
</g>
</g>
<!-- ClickLink -->
<g id="node2" class="node">
<title>ClickLink</title>
<g id="a_node2"><a xlink:title="(6) ClickLink">
<ellipse fill="#404040" stroke="#4a4a4a" cx="388.94" cy="-90" rx="48.28" ry="18"/>
<text xml:space="preserve" text-anchor="middle" x="388.94" y="-84.95" font-family="Times New Roman,serif" font-size="14.00" fill="white">ClickLink</text>
</a>
</g>
</g>
<!-- ClickLink&#45;&gt;AccountCompromised -->
<g id="edge6" class="edge">
<title>ClickLink&#45;&gt;AccountCompromised</title>
<g id="a_edge6"><a xlink:title="6 → 7">
<path fill="none" stroke="#4a4a4a" d="M388.94,-71.7C388.94,-64.41 388.94,-55.73 388.94,-47.54"/>
<polygon fill="#4a4a4a" stroke="#4a4a4a" points="392.44,-47.62 388.94,-37.62 385.44,-47.62 392.44,-47.62"/>
</a>
</g>
</g>
<!-- SenderReputation -->
<g id="node3" class="node">
<title>SenderReputation</title>
<g id="a_node3"><a xlink:title="(0) SenderReputation">
<ellipse fill="#404040" stroke="#4a4a4a" cx="76.94" cy="-234" rx="76.94" ry="18"/>
<text xml:space="preserve" text-anchor="middle" x="76.94" y="-228.95" font-family="Times New Roman,serif" font-size="14.00" fill="white">SenderReputation</text>
</a>
</g>
</g>
<!-- PhishingEmail -->
<g id="node4" class="node">
<title>PhishingEmail</title>
<g id="a_node4"><a xlink:title="(4) PhishingEmail">
<ellipse fill="#404040" stroke="#4a4a4a" cx="312.94" cy="-162" rx="65.68" ry="18"/>
<text xml:space="preserve" text-anchor="middle" x="312.94" y="-156.95" font-family="Times New Roman,serif" font-size="14.00" fill="white">PhishingEmail</text>
</a>
</g>
</g>
<!-- SenderReputation&#45;&gt;PhishingEmail -->
<g id="edge2" class="edge">
<title>SenderReputation&#45;&gt;PhishingEmail</title>
<g id="a_edge2"><a xlink:title="0 → 4">
<path fill="none" stroke="#4a4a4a" d="M123.29,-219.25C162.14,-207.73 217.68,-191.25 258.62,-179.11"/>
<polygon fill="#4a4a4a" stroke="#4a4a4a" points="259.45,-182.52 268.04,-176.32 257.46,-175.81 259.45,-182.52"/>
</a>
</g>
</g>
<!-- PhishingEmail&#45;&gt;ClickLink -->
<g id="edge4" class="edge">
<title>PhishingEmail&#45;&gt;ClickLink</title>
<g id="a_edge4"><a xlink:title="4 → 6">
<path fill="none" stroke="#4a4a4a" d="M330.95,-144.41C340.49,-135.63 352.37,-124.69 362.89,-115"/>
<polygon fill="#4a4a4a" stroke="#4a4a4a" points="365.22,-117.6 370.21,-108.25 360.48,-112.45 365.22,-117.6"/>
</a>
</g>
</g>
<!-- UserAwareness -->
<g id="node5" class="node">
<title>UserAwareness</title>
<g id="a_node5"><a xlink:title="(5) UserAwareness">
<ellipse fill="#404040" stroke="#4a4a4a" cx="464.94" cy="-162" rx="68.24" ry="18"/>
<text xml:space="preserve" text-anchor="middle" x="464.94" y="-156.95" font-family="Times New Roman,serif" font-size="14.00" fill="white">UserAwareness</text>
</a>
</g>
</g>
<!-- UserAwareness&#45;&gt;ClickLink -->
<g id="edge7" class="edge">
<title>UserAwareness&#45;&gt;ClickLink</title>
<g id="a_edge7"><a xlink:title="5 → 6">
<path fill="none" stroke="#4a4a4a" d="M446.93,-144.41C437.4,-135.63 425.52,-124.69 415,-115"/>
<polygon fill="#4a4a4a" stroke="#4a4a4a" points="417.4,-112.45 407.67,-108.25 412.66,-117.6 417.4,-112.45"/>
</a>
</g>
</g>
<!-- ContainsLinks -->
<g id="node6" class="node">
<title>ContainsLinks</title>
<g id="a_node6"><a xlink:title="(2) ContainsLinks">
<ellipse fill="#404040" stroke="#4a4a4a" cx="236.94" cy="-234" rx="64.66" ry="18"/>
<text xml:space="preserve" text-anchor="middle" x="236.94" y="-228.95" font-family="Times New Roman,serif" font-size="14.00" fill="white">ContainsLinks</text>
</a>
</g>
</g>
<!-- ContainsLinks&#45;&gt;PhishingEmail -->
<g id="edge1" class="edge">
<title>ContainsLinks&#45;&gt;PhishingEmail</title>
<g id="a_edge1"><a xlink:title="2 → 4">
<path fill="none" stroke="#4a4a4a" d="M254.95,-216.41C264.35,-207.76 276.02,-197 286.43,-187.42"/>
<polygon fill="#4a4a4a" stroke="#4a4a4a" points="288.7,-190.09 293.68,-180.74 283.96,-184.94 288.7,-190.09"/>
</a>
</g>
</g>
<!-- EmailGrammar -->
<g id="node7" class="node">
<title>EmailGrammar</title>
<g id="a_node7"><a xlink:title="(1) EmailGrammar">
<ellipse fill="#404040" stroke="#4a4a4a" cx="388.94" cy="-234" rx="69.78" ry="18"/>
<text xml:space="preserve" text-anchor="middle" x="388.94" y="-228.95" font-family="Times New Roman,serif" font-size="14.00" fill="white">EmailGrammar</text>
</a>
</g>
</g>
<!-- EmailGrammar&#45;&gt;PhishingEmail -->
<g id="edge5" class="edge">
<title>EmailGrammar&#45;&gt;PhishingEmail</title>
<g id="a_edge5"><a xlink:title="1 → 4">
<path fill="none" stroke="#4a4a4a" d="M370.93,-216.41C361.53,-207.76 349.86,-197 339.45,-187.42"/>
<polygon fill="#4a4a4a" stroke="#4a4a4a" points="341.93,-184.94 332.2,-180.74 337.18,-190.09 341.93,-184.94"/>
</a>
</g>
</g>
<!-- UrgencyLanguage -->
<g id="node8" class="node">
<title>UrgencyLanguage</title>
<g id="a_node8"><a xlink:title="(3) UrgencyLanguage">
<ellipse fill="#404040" stroke="#4a4a4a" cx="555.94" cy="-234" rx="78.99" ry="18"/>
<text xml:space="preserve" text-anchor="middle" x="555.94" y="-228.95" font-family="Times New Roman,serif" font-size="14.00" fill="white">UrgencyLanguage</text>
</a>
</g>
</g>
<!-- UrgencyLanguage&#45;&gt;PhishingEmail -->
<g id="edge3" class="edge">
<title>UrgencyLanguage&#45;&gt;PhishingEmail</title>
<g id="a_edge3"><a xlink:title="3 → 4">
<path fill="none" stroke="#4a4a4a" d="M508.22,-219.25C467.87,-207.63 410.06,-190.98 367.8,-178.8"/>
<polygon fill="#4a4a4a" stroke="#4a4a4a" points="368.91,-175.48 358.33,-176.07 366.97,-182.21 368.91,-175.48"/>
</a>
</g>
</g>
</g>
</svg>
